<svg width="24" height="24" viewBox="0 0 24 24" fill="none" xmlns="http://www.w3.org/2000/svg">
<g clip-path="url(#clip0_1359_198)">
<path fill-rule="evenodd" clip-rule="evenodd" d="M12.0013 2C13.6587 2 15.2752 2.51481 16.6275 3.47328C17.9797 4.43175 19.0008 5.78655 19.5498 7.35047C20.0987 8.91439 20.1483 10.6102 19.6918 12.2035C19.2353 13.7969 18.2951 15.2091 17.0013 16.245V20.855C17.0012 21.0327 16.9582 21.2078 16.8757 21.3652C16.7933 21.5227 16.6739 21.6578 16.5279 21.759C16.3818 21.8602 16.2134 21.9246 16.0371 21.9465C15.8607 21.9685 15.6817 21.9474 15.5153 21.885L12.0013 20.569L8.48725 21.887C8.32076 21.9494 8.14163 21.9705 7.96519 21.9485C7.78876 21.9265 7.62029 21.8621 7.4742 21.7607C7.32812 21.6594 7.20879 21.5241 7.12642 21.3666C7.04405 21.209 7.0011 21.0338 7.00125 20.856V16.246C5.707 15.2102 4.76648 13.7979 4.3097 12.2044C3.85293 10.6109 3.90245 8.91479 4.45143 7.35064C5.00041 5.78648 6.02174 4.43148 7.37422 3.47297C8.72671 2.51445 10.3436 1.99974 12.0013 2ZM15.0013 17.419C14.048 17.8042 13.0293 18.0014 12.0013 18C10.9732 18.0014 9.95448 17.8042 9.00125 17.419V19.557L11.2993 18.695C11.7519 18.5253 12.2506 18.5253 12.7033 18.695L15.0013 19.557V17.419ZM12.0013 4C10.41 4 8.88383 4.63214 7.75861 5.75736C6.63339 6.88258 6.00125 8.4087 6.00125 10C6.00125 11.5913 6.63339 13.1174 7.75861 14.2426C8.88383 15.3679 10.41 16 12.0013 16C13.5926 16 15.1187 15.3679 16.2439 14.2426C17.3691 13.1174 18.0013 11.5913 18.0013 10C18.0013 8.4087 17.3691 6.88258 16.2439 5.75736C15.1187 4.63214 13.5926 4 12.0013 4ZM12.0013 6C13.0621 6 14.0795 6.42143 14.8297 7.17157C15.5798 7.92172 16.0013 8.93913 16.0013 10C16.0013 11.0609 15.5798 12.0783 14.8297 12.8284C14.0795 13.5786 13.0621 14 12.0013 14C10.9404 14 9.92297 13.5786 9.17283 12.8284C8.42268 12.0783 8.00125 11.0609 8.00125 10C8.00125 8.93913 8.42268 7.92172 9.17283 7.17157C9.92297 6.42143 10.9404 6 12.0013 6ZM12.0013 8C11.4708 8 10.9621 8.21071 10.587 8.58579C10.212 8.96086 10.0013 9.46957 10.0013 10C10.0013 10.5304 10.212 11.0391 10.587 11.4142C10.9621 11.7893 11.4708 12 12.0013 12C12.5317 12 13.0404 11.7893 13.4155 11.4142C13.7905 11.0391 14.0013 10.5304 14.0013 10C14.0013 9.46957 13.7905 8.96086 13.4155 8.58579C13.0404 8.21071 12.5317 8 12.0013 8Z" fill="#09244B"/>
</g>
<defs>
<clipPath id="clip0_1359_198">
<rect width="24" height="24" fill="white"/>
</clipPath>
</defs>
</svg>
