<svg width="24" height="24" viewBox="0 0 24 24" fill="none" xmlns="http://www.w3.org/2000/svg">
<g clip-path="url(#clip0_1359_194)">
<path d="M10.5869 2.1C10.9409 1.74648 11.4146 1.53846 11.9144 1.51698C12.4142 1.49551 12.9039 1.66214 13.2869 1.984L13.4149 2.101L15.3149 4H18.0009C18.5053 4.00009 18.9911 4.19077 19.3609 4.53384C19.7306 4.8769 19.9571 5.34702 19.9949 5.85L20.0009 6V8.686L21.9009 10.586C22.2548 10.94 22.4629 11.4139 22.4844 11.9139C22.5059 12.414 22.3391 12.9039 22.0169 13.287L21.8999 13.414L19.9999 15.314V18C20.0001 18.5046 19.8095 18.9906 19.4664 19.3605C19.1234 19.7305 18.6531 19.9572 18.1499 19.995L18.0009 20H15.3159L13.4159 21.9C13.0619 22.2538 12.5881 22.462 12.088 22.4835C11.588 22.505 11.098 22.3382 10.7149 22.016L10.5879 21.9L8.68795 20H6.00095C5.49637 20.0002 5.01038 19.8096 4.6404 19.4665C4.27042 19.1234 4.04379 18.6532 4.00595 18.15L4.00095 18V15.314L2.10095 13.414C1.74714 13.06 1.53894 12.5861 1.51747 12.0861C1.49599 11.586 1.6628 11.0961 1.98495 10.713L2.10095 10.586L4.00095 8.686V6C4.00104 5.4956 4.19172 5.00986 4.53478 4.64009C4.87785 4.27032 5.34796 4.04383 5.85095 4.006L6.00095 4H8.68695L10.5869 2.1ZM12.0009 3.516L10.1009 5.416C9.76878 5.74765 9.33054 5.95191 8.86295 5.993L8.68695 6H6.00095V8.686C6.00107 9.1559 5.83573 9.61083 5.53395 9.971L5.41495 10.101L3.51495 12.001L5.41495 13.9C5.74696 14.232 5.95158 14.6703 5.99295 15.138L6.00095 15.314V18H8.68695C9.15684 17.9999 9.61177 18.1652 9.97195 18.467L10.1019 18.586L12.0009 20.486L13.9009 18.586C14.233 18.254 14.6712 18.0494 15.1389 18.008L15.3149 18H18.0009V15.314C18.0008 14.8441 18.1662 14.3892 18.4679 14.029L18.5869 13.899L20.4869 12L18.5869 10.1C18.2549 9.76798 18.0503 9.32972 18.0089 8.862L18.0009 8.686V6H15.3149C14.8451 6.00012 14.3901 5.83479 14.0299 5.533L13.8999 5.414L11.9999 3.514L12.0009 3.516ZM15.0809 8.984C15.2609 8.80465 15.5024 8.70053 15.7563 8.69277C16.0103 8.68502 16.2577 8.77422 16.4482 8.94225C16.6388 9.11028 16.7583 9.34455 16.7823 9.59748C16.8064 9.8504 16.7334 10.103 16.5779 10.304L16.4939 10.398L11.6139 15.278C11.4234 15.4688 11.1695 15.5829 10.9003 15.5988C10.6312 15.6146 10.3656 15.5311 10.1539 15.364L10.0579 15.279L7.65395 12.875C7.47269 12.6955 7.36691 12.4534 7.35826 12.1985C7.34961 11.9435 7.43874 11.6948 7.60741 11.5034C7.77608 11.312 8.01153 11.1923 8.26557 11.1688C8.51961 11.1453 8.77303 11.2198 8.97395 11.377L9.06795 11.46L10.8359 13.228L15.0809 8.984Z" fill="#09244B"/>
</g>
<defs>
<clipPath id="clip0_1359_194">
<rect width="24" height="24" fill="white"/>
</clipPath>
</defs>
</svg>
