<svg width="24" height="24" viewBox="0 0 24 24" fill="none" xmlns="http://www.w3.org/2000/svg">
<g clip-path="url(#clip0_1359_202)">
<path fill-rule="evenodd" clip-rule="evenodd" d="M9 3C9.51284 3 9.93551 3.38604 9.99327 3.88338L10 4L10.002 4.56189L10.0209 5.74735L10.0662 7.22514L10.1343 8.79201L10.1519 9.14269L13.4855 7.14251C13.7944 6.95715 14.1792 6.95229 14.4927 7.1298C14.7714 7.28759 14.9555 7.56777 14.9929 7.88112L15 8V10.1315L19.4453 7.16795C19.7522 6.96338 20.1467 6.94431 20.4719 7.11833C20.7609 7.27301 20.9534 7.55793 20.9926 7.87836L21 8V20C21 20.5128 20.614 20.9355 20.1166 20.9933L20 21H4C3.71748 21 3.44813 20.8805 3.25855 20.671C3.06897 20.4615 2.97685 20.1816 3.00497 19.9005L3.10105 18.9235L3.27425 17.068L3.45747 14.9311L3.57957 13.3653L3.65803 12.2736L3.78441 10.2998L3.87505 8.6002L3.95056 6.75051L3.9771 5.83044L3.99939 4.3395L4 4.00397C4 3.48745 4.38604 3.06451 4.88338 3.00673L5 3H9ZM13 9.76619L10.2832 11.3963L10.3716 12.6949L10.4766 14.1031L10.5998 15.6224L10.7426 17.2542L10.9064 19H19V9.86852L14.5547 12.8321C14.2478 13.0366 13.8533 13.0557 13.5281 12.8817C13.203 12.7077 13 12.3688 13 12V9.76619ZM8.00663 5H5.99338L5.95834 6.53936L5.89603 8.19028L5.80877 9.93069L5.75104 10.9159L5.65747 12.3507L5.47721 14.7671L5.32736 16.5572L5.1513 18.493L5.10295 19H8.89705L8.75726 17.5067L8.63281 16.0961L8.52279 14.7671L8.34254 12.3507L8.24896 10.9159L8.14321 9.02245L8.0927 7.92964L8.03562 6.33627L8.01396 5.4415L8.00663 5ZM13 14C13.5523 14 14 14.4477 14 15V16C14 16.5523 13.5523 17 13 17C12.4477 17 12 16.5523 12 16V15C12 14.4477 12.4477 14 13 14ZM17 14C17.5128 14 17.9355 14.386 17.9933 14.8834L18 15V16C18 16.5523 17.5523 17 17 17C16.4871 17 16.0645 16.614 16.0067 16.1166L16 16V15C16 14.4477 16.4477 14 17 14Z" fill="#09244B"/>
</g>
<defs>
<clipPath id="clip0_1359_202">
<rect width="24" height="24" fill="white"/>
</clipPath>
</defs>
</svg>
