<svg width="101" height="70" viewBox="0 0 101 70" fill="none" xmlns="http://www.w3.org/2000/svg">
<g clip-path="url(#clip0_1518_178)">
<mask id="mask0_1518_178" style="mask-type:luminance" maskUnits="userSpaceOnUse" x="0" y="0" width="101" height="70">
<path d="M101 0H0V69.0365H101V0Z" fill="white"/>
</mask>
<g mask="url(#mask0_1518_178)">
<g opacity="0.2">
<path fill-rule="evenodd" clip-rule="evenodd" d="M24.3604 7.33301C23.5919 7.33301 22.9688 7.9447 22.9688 8.69925V9.43906C22.9688 10.1936 23.5919 10.8052 24.3604 10.8052H25.1514V22.7367L29.4789 18.23V10.8052H30.2693C31.0381 10.8052 31.6612 10.1936 31.6612 9.43905V8.69925C31.6612 7.94469 31.0381 7.33301 30.2693 7.33301H24.3604Z" fill="#05283B"/>
<path fill-rule="evenodd" clip-rule="evenodd" d="M43.8985 28.749C43.4238 28.749 43.0391 29.1266 43.0391 29.5927V33.6423C43.0391 34.1082 43.4238 34.4859 43.8985 34.4859H48.0238C48.4984 34.4859 48.8832 34.1082 48.8832 33.6423V29.5927C48.8832 29.1266 48.4984 28.749 48.0238 28.749H43.8985ZM43.8985 37.8605C43.4238 37.8605 43.0391 38.2383 43.0391 38.7042V42.7538C43.0391 43.2197 43.4238 43.5974 43.8985 43.5974H48.0238C48.4984 43.5974 48.8832 43.2197 48.8832 42.7538V38.7042C48.8832 38.2383 48.4984 37.8605 48.0238 37.8605H43.8985ZM52.3208 29.5927C52.3208 29.1266 52.7057 28.749 53.1804 28.749H57.3056C57.7803 28.749 58.1651 29.1266 58.1651 29.5927V33.6423C58.1651 34.1082 57.7803 34.4859 57.3056 34.4859H53.1804C52.7057 34.4859 52.3208 34.1082 52.3208 33.6423V29.5927ZM53.1804 37.8605C52.7057 37.8605 52.3208 38.2383 52.3208 38.7042V42.7538C52.3208 43.2197 52.7057 43.5974 53.1804 43.5974H57.3056C57.7803 43.5974 58.1651 43.2197 58.1651 42.7538V38.7042C58.1651 38.2383 57.7803 37.8605 57.3056 37.8605H53.1804Z" fill="#05283B"/>
<path fill-rule="evenodd" clip-rule="evenodd" d="M50.6034 6.44681C44.933 11.5725 36.7322 18.457 28.489 24.3115C23.8864 27.5805 19.2125 30.57 14.9206 32.7538C10.7248 34.8887 6.52633 36.4492 2.98669 36.4492C1.44937 36.4492 0.203125 35.2259 0.203125 33.7168C0.203125 32.2077 1.44937 30.9843 2.98669 30.9843C5.1158 30.9843 8.30834 29.9628 12.3586 27.9019C16.3126 25.89 20.7397 23.0699 25.2256 19.8839C34.1924 13.5155 43.1625 5.85091 48.669 0.745894C49.2131 0.241505 49.9099 -0.00563639 50.6034 9.75048e-05C51.2969 -0.00563639 51.9936 0.241505 52.5377 0.745894C58.0443 5.85091 67.0145 13.5155 75.9811 19.8839C80.4671 23.0699 84.8942 25.89 88.8482 27.9019C92.8985 29.9628 96.091 30.9843 98.2201 30.9843C99.7575 30.9843 101.004 32.2077 101.004 33.7168C101.004 35.2259 99.7575 36.4492 98.2201 36.4492C94.6805 36.4492 90.482 34.8887 86.2863 32.7538C81.9943 30.57 77.3204 27.5805 72.7177 24.3115C64.4747 18.457 56.2739 11.5725 50.6034 6.44681Z" fill="#05283B"/>
<path fill-rule="evenodd" clip-rule="evenodd" d="M52.5852 6.13273C53.6408 7.22989 53.5904 8.95929 52.4727 9.99547C47.1043 14.9724 38.3785 22.4307 29.6011 28.6647C25.2151 31.7799 20.7581 34.6308 16.6628 36.7147C12.6635 38.7496 8.64123 40.2487 5.2367 40.2487C3.69938 40.2487 2.45312 39.0252 2.45312 37.5161C2.45312 36.007 3.69938 34.7836 5.2367 34.7836C7.2307 34.7836 10.247 33.8237 14.1008 31.8628C17.8582 29.9508 22.0684 27.2693 26.3378 24.2371C34.8712 18.1764 43.4092 10.8811 48.6503 6.02226C49.7681 4.9861 51.5297 5.03555 52.5852 6.13273Z" fill="url(#paint0_linear_1518_178)"/>
<path fill-rule="evenodd" clip-rule="evenodd" d="M48.5723 6.13273C47.5168 7.22989 47.5672 8.95929 48.6848 9.99547C54.0533 14.9724 62.7791 22.4307 71.5565 28.6647C75.9425 31.7799 80.3994 34.6308 84.4948 36.7147C88.4939 38.7496 92.5162 40.2487 95.9209 40.2487C97.4582 40.2487 98.7044 39.0252 98.7044 37.5161C98.7044 36.007 97.4582 34.7836 95.9209 34.7836C93.9269 34.7836 90.9105 33.8237 87.0568 31.8628C83.2993 29.9508 79.0891 27.2693 74.8198 24.2371C66.2864 18.1764 57.7483 10.8811 52.5073 6.02226C51.3896 4.9861 49.6279 5.03555 48.5723 6.13273Z" fill="url(#paint1_linear_1518_178)"/>
<path fill-rule="evenodd" clip-rule="evenodd" d="M52.5608 11.4706C53.6161 12.5678 53.5659 14.2972 52.4482 15.3333C47.6102 19.8186 39.7475 26.5391 31.8357 32.1584C27.8824 34.9662 23.8588 37.5406 20.156 39.4247C16.5495 41.2598 12.879 42.6359 9.7445 42.6359C8.20717 42.6359 6.96094 41.4125 6.96094 39.9033C6.96094 38.3943 8.20717 37.1708 9.7445 37.1708C11.4686 37.1708 14.133 36.3339 17.5941 34.5728C20.9589 32.8608 24.7358 30.4558 28.5724 27.7308C36.2403 22.2849 43.9151 15.7272 48.6258 11.3601C49.7434 10.324 51.5052 10.3734 52.5608 11.4706Z" fill="url(#paint2_linear_1518_178)"/>
<path fill-rule="evenodd" clip-rule="evenodd" d="M48.5489 11.4706C47.4933 12.5678 47.5438 14.2972 48.6615 15.3333C53.4995 19.8186 61.362 26.5391 69.2739 32.1584C73.2271 34.9662 77.2507 37.5406 80.9535 39.4247C84.5602 41.2598 88.2305 42.6359 91.3651 42.6359C92.9024 42.6359 94.1486 41.4125 94.1486 39.9033C94.1486 38.3943 92.9024 37.1708 91.3651 37.1708C89.6411 37.1708 86.9767 36.3339 83.5155 34.5728C80.1506 32.8608 76.3738 30.4558 72.5373 27.7308C64.8693 22.2849 57.1944 15.7272 52.4839 11.3601C51.3661 10.324 49.6044 10.3734 48.5489 11.4706Z" fill="url(#paint3_linear_1518_178)"/>
<path d="M81.1782 51.9561H87.0047L89.3914 55.792L91.8016 51.9561H97.5578L92.2463 59.3983L98.447 68.0351H92.5972L89.2978 63.1654L86.0688 68.0351H80.2891L86.4899 59.4213L81.1782 51.9561Z" fill="#05283B"/>
<path d="M77.0863 68.0351H72.0547V51.9561H77.0863V68.0351Z" fill="#05283B"/>
<path d="M59.8902 68.0351H54.8594V51.9561H67.729V56.2054H59.8902V57.7904H65.5295V61.6953H59.8902V68.0351Z" fill="#05283B"/>
<path d="M40.3649 62.7753C41.0512 63.495 41.9171 63.8549 42.9623 63.8549C44.0074 63.8549 44.8732 63.495 45.5595 62.7753C46.2459 62.0251 46.5891 61.0985 46.5891 59.9959C46.5891 58.878 46.2459 57.9593 45.5595 57.2395C44.8887 56.5045 44.023 56.137 42.9623 56.137C41.9014 56.137 41.0357 56.5045 40.3649 57.2395C39.6786 57.9593 39.3353 58.878 39.3353 59.9959C39.3353 61.0985 39.6786 62.0251 40.3649 62.7753ZM36.6677 65.8993C35.0143 64.276 34.1875 62.3082 34.1875 59.9959C34.1875 57.6836 35.0143 55.7159 36.6677 54.0926C38.3369 52.4542 40.435 51.6348 42.9623 51.6348C45.4737 51.6348 47.5642 52.4542 49.2333 54.0926C50.8868 55.7159 51.7136 57.6836 51.7136 59.9959C51.7136 62.3235 50.8868 64.299 49.2333 65.9222C47.5797 67.5453 45.4894 68.357 42.9623 68.357C40.435 68.357 38.3369 67.5377 36.6677 65.8993Z" fill="#05283B"/>
<path d="M26.1071 62.7753C26.7935 63.495 27.6593 63.8549 28.7046 63.8549C29.7497 63.8549 30.6154 63.495 31.3018 62.7753C31.9883 62.0251 32.3314 61.0985 32.3314 59.9959C32.3314 58.878 31.9883 57.9593 31.3018 57.2395C30.6311 56.5045 29.7652 56.137 28.7046 56.137C27.6437 56.137 26.778 56.5045 26.1071 57.2395C25.4208 57.9593 25.0776 58.878 25.0776 59.9959C25.0776 61.0985 25.4208 62.0251 26.1071 62.7753ZM22.41 65.8993C20.7565 64.276 19.9297 62.3082 19.9297 59.9959C19.9297 57.6836 20.7565 55.7159 22.41 54.0926C24.0792 52.4542 26.1773 51.6348 28.7046 51.6348C31.216 51.6348 33.3064 52.4542 34.9755 54.0926C36.6291 55.7159 37.4559 57.6836 37.4559 59.9959C37.4559 62.3235 36.6291 64.299 34.9755 65.9222C33.322 67.5453 31.2316 68.357 28.7046 68.357C26.1773 68.357 24.0792 67.5377 22.41 65.8993Z" fill="#05283B"/>
<path d="M13.8804 61.7413L18.7709 68.0351H12.8977L8.54535 62.2925H7.84337V68.0351H2.8125V51.9561H10.7215C12.5935 51.9561 14.0832 52.4461 15.1908 53.4261C16.314 54.3909 16.8755 55.6235 16.8755 57.1243C16.8755 58.135 16.6105 59.0461 16.08 59.8578C15.5496 60.6541 14.8163 61.2818 13.8804 61.7413ZM7.84337 58.6862H10.1365C10.6045 58.6862 10.9789 58.5714 11.2597 58.3416C11.5561 58.0966 11.7043 57.7751 11.7043 57.377C11.7043 56.9788 11.5561 56.6649 11.2597 56.4352C10.9789 56.2054 10.6045 56.0906 10.1365 56.0906H7.84337V58.6862Z" fill="#05283B"/>
</g>
</g>
</g>
<defs>
<linearGradient id="paint0_linear_1518_178" x1="27.8991" y1="5.27637" x2="27.8991" y2="40.2487" gradientUnits="userSpaceOnUse">
<stop stop-color="#FDAE28"/>
<stop offset="1" stop-color="#FF3F36"/>
</linearGradient>
<linearGradient id="paint1_linear_1518_178" x1="73.2585" y1="5.27637" x2="73.2585" y2="40.2487" gradientUnits="userSpaceOnUse">
<stop stop-color="#FDAE28"/>
<stop offset="1" stop-color="#FF3F36"/>
</linearGradient>
<linearGradient id="paint2_linear_1518_178" x1="30.1406" y1="10.6143" x2="30.1406" y2="42.6359" gradientUnits="userSpaceOnUse">
<stop stop-color="#FDAE28"/>
<stop offset="1" stop-color="#FF3F36"/>
</linearGradient>
<linearGradient id="paint3_linear_1518_178" x1="70.9688" y1="10.6143" x2="70.9688" y2="42.6359" gradientUnits="userSpaceOnUse">
<stop stop-color="#FDAE28"/>
<stop offset="1" stop-color="#FF3F36"/>
</linearGradient>
<clipPath id="clip0_1518_178">
<rect width="101" height="69.0365" fill="white"/>
</clipPath>
</defs>
</svg>
