<svg width="363" height="247" viewBox="0 0 363 247" fill="none" xmlns="http://www.w3.org/2000/svg">
<g opacity="0.02">
<path fill-rule="evenodd" clip-rule="evenodd" d="M86.9467 26.5933C84.1802 26.5933 81.9375 28.7936 81.9375 31.5079V34.1692C81.9375 36.8835 84.1802 39.0838 86.9467 39.0838H89.7935V82.0035L105.368 65.7923V39.0838H108.214C110.98 39.0838 113.223 36.8835 113.223 34.1692V31.5079C113.223 28.7936 110.98 26.5933 108.214 26.5933H86.9467Z" fill="white"/>
<path fill-rule="evenodd" clip-rule="evenodd" d="M157.265 103.628C155.557 103.628 154.172 104.987 154.172 106.663V121.23C154.172 122.907 155.557 124.265 157.265 124.265H172.112C173.821 124.265 175.206 122.907 175.206 121.23V106.663C175.206 104.987 173.821 103.628 172.112 103.628H157.265ZM157.265 136.405C155.557 136.405 154.172 137.763 154.172 139.44V154.007C154.172 155.683 155.557 157.042 157.265 157.042H172.112C173.821 157.042 175.206 155.683 175.206 154.007V139.44C175.206 137.763 173.821 136.405 172.112 136.405H157.265ZM187.578 106.663C187.578 104.987 188.963 103.628 190.672 103.628H205.519C207.227 103.628 208.612 104.987 208.612 106.663V121.23C208.612 122.907 207.227 124.265 205.519 124.265H190.672C188.963 124.265 187.578 122.907 187.578 121.23V106.663ZM190.672 136.405C188.963 136.405 187.578 137.763 187.578 139.44V154.007C187.578 155.683 188.963 157.042 190.672 157.042H205.519C207.227 157.042 208.612 155.683 208.612 154.007V139.44C208.612 137.763 207.227 136.405 205.519 136.405H190.672Z" fill="white"/>
<path fill-rule="evenodd" clip-rule="evenodd" d="M181.397 23.4039C160.988 41.8422 131.472 66.6072 101.804 87.6671C85.2388 99.4262 68.417 110.18 52.9697 118.036C37.8688 125.716 22.758 131.329 10.0184 131.329C4.48537 131.329 0 126.929 0 121.5C0 116.071 4.48537 111.671 10.0184 111.671C17.6813 111.671 29.1716 107.996 43.749 100.583C57.98 93.3454 73.9136 83.2011 90.0592 71.7399C122.331 48.8313 154.616 21.2604 174.435 2.89652C176.393 1.08213 178.9 0.193104 181.397 0.21373C183.893 0.193104 186.4 1.08213 188.358 2.89652C208.177 21.2604 240.462 48.8313 272.734 71.7399C288.88 83.2011 304.813 93.3454 319.044 100.583C333.622 107.996 345.112 111.671 352.775 111.671C358.308 111.671 362.793 116.071 362.793 121.5C362.793 126.929 358.308 131.329 352.775 131.329C340.035 131.329 324.924 125.716 309.823 118.036C294.376 110.18 277.554 99.4262 260.989 87.6671C231.321 66.6072 201.805 41.8422 181.397 23.4039Z" fill="white"/>
<path fill-rule="evenodd" clip-rule="evenodd" d="M188.533 22.2734C192.332 26.2201 192.151 32.4412 188.128 36.1685C168.806 54.0715 137.401 80.9009 105.81 103.326C90.0245 114.531 73.9835 124.787 59.2435 132.283C44.85 139.603 30.3732 144.996 18.1199 144.996C12.5869 144.996 8.10156 140.595 8.10156 135.166C8.10156 129.738 12.5869 125.337 18.1199 125.337C25.2966 125.337 36.1528 121.884 50.0228 114.83C63.5464 107.952 78.6993 98.3063 94.0652 87.3987C124.778 65.5969 155.507 39.3543 174.371 21.876C178.393 18.1487 184.734 18.3266 188.533 22.2734Z" fill="#EFEFEF"/>
<path fill-rule="evenodd" clip-rule="evenodd" d="M174.084 22.2734C170.285 26.2201 170.467 32.4412 174.489 36.1685C193.811 54.0715 225.216 80.9009 256.807 103.326C272.593 114.531 288.634 124.787 303.374 132.283C317.767 139.603 332.244 144.996 344.497 144.996C350.03 144.996 354.516 140.595 354.516 135.166C354.516 129.738 350.03 125.337 344.497 125.337C337.321 125.337 326.464 121.884 312.594 114.83C299.071 107.952 283.918 98.3063 268.552 87.3987C237.839 65.5969 207.11 39.3543 188.247 21.876C184.224 18.1487 177.883 18.3266 174.084 22.2734Z" fill="#EFEFEF"/>
<path fill-rule="evenodd" clip-rule="evenodd" d="M188.439 41.475C192.238 45.4218 192.057 51.6428 188.034 55.3701C170.622 71.5041 142.323 95.68 113.847 115.894C99.6193 125.994 85.1379 135.254 71.8111 142.032C58.8307 148.633 45.6205 153.583 34.3387 153.583C28.8057 153.583 24.3203 149.182 24.3203 143.754C24.3203 138.325 28.8057 133.924 34.3387 133.924C40.5439 133.924 50.1335 130.914 62.5903 124.579C74.7008 118.42 88.294 109.769 102.102 99.9665C129.7 80.3761 157.323 56.787 174.277 41.0777C178.3 37.3504 184.64 37.5283 188.439 41.475Z" fill="white"/>
<path fill-rule="evenodd" clip-rule="evenodd" d="M173.998 41.475C170.199 45.4218 170.381 51.6428 174.403 55.3701C191.816 71.5041 220.114 95.68 248.59 115.894C262.818 125.994 277.3 135.254 290.626 142.032C303.607 148.633 316.817 153.583 328.099 153.583C333.632 153.583 338.117 149.182 338.117 143.754C338.117 138.325 333.632 133.924 328.099 133.924C321.894 133.924 312.304 130.914 299.847 124.579C287.737 118.42 274.143 109.769 260.335 99.9665C232.737 80.3761 205.115 56.787 188.161 41.0777C184.138 37.3504 177.797 37.5283 173.998 41.475Z" fill="white"/>
<path d="M291.427 187.111H312.397L320.987 200.91L329.661 187.111H350.379L331.262 213.882L353.579 244.951H332.525L320.65 227.434L309.028 244.951H288.227L310.544 213.965L291.427 187.111Z" fill="white"/>
<path d="M276.703 244.951H258.594V187.111H276.703V244.951Z" fill="white"/>
<path d="M214.81 244.951H196.703V187.111H243.023V202.397H214.81V208.098H235.106V222.145H214.81V244.951Z" fill="white"/>
<path d="M144.538 226.029C147.008 228.618 150.124 229.913 153.886 229.913C157.648 229.913 160.764 228.618 163.234 226.029C165.705 223.33 166.94 219.997 166.94 216.031C166.94 212.01 165.705 208.705 163.234 206.116C160.82 203.472 157.704 202.15 153.886 202.15C150.068 202.15 146.952 203.472 144.538 206.116C142.068 208.705 140.832 212.01 140.832 216.031C140.832 219.997 142.068 223.33 144.538 226.029ZM131.232 237.267C125.28 231.428 122.305 224.349 122.305 216.031C122.305 207.713 125.28 200.635 131.232 194.796C137.239 188.902 144.791 185.955 153.886 185.955C162.926 185.955 170.449 188.902 176.456 194.796C182.408 200.635 185.383 207.713 185.383 216.031C185.383 224.404 182.408 231.51 176.456 237.349C170.505 243.189 162.982 246.108 153.886 246.108C144.791 246.108 137.239 243.161 131.232 237.267Z" fill="white"/>
<path d="M93.2256 226.029C95.6959 228.618 98.812 229.913 102.574 229.913C106.335 229.913 109.451 228.618 111.922 226.029C114.392 223.33 115.627 219.997 115.627 216.031C115.627 212.01 114.392 208.705 111.922 206.116C109.508 203.472 106.392 202.15 102.574 202.15C98.7558 202.15 95.6398 203.472 93.2256 206.116C90.7552 208.705 89.52 212.01 89.52 216.031C89.52 219.997 90.7552 223.33 93.2256 226.029ZM79.9192 237.267C73.9679 231.428 70.9922 224.349 70.9922 216.031C70.9922 207.713 73.9679 200.635 79.9192 194.796C85.9267 188.902 93.4782 185.955 102.574 185.955C111.613 185.955 119.136 188.902 125.144 194.796C131.095 200.635 134.071 207.713 134.071 216.031C134.071 224.404 131.095 231.51 125.144 237.349C119.193 243.189 111.669 246.108 102.574 246.108C93.4782 246.108 85.9267 243.161 79.9192 237.267Z" fill="white"/>
<path d="M49.2176 222.311L66.819 244.951H45.6805L30.0161 224.294H27.4895V244.951H9.38281V187.111H37.8483C44.5857 187.111 49.9475 188.874 53.9338 192.399C57.9762 195.869 59.9974 200.304 59.9974 205.702C59.9974 209.338 59.043 212.615 57.134 215.535C55.2251 218.399 52.5863 220.658 49.2176 222.311ZM27.4895 211.321H35.7428C37.4272 211.321 38.7747 210.908 39.7853 210.082C40.852 209.2 41.3854 208.043 41.3854 206.611C41.3854 205.179 40.852 204.05 39.7853 203.223C38.7747 202.397 37.4272 201.984 35.7428 201.984H27.4895V211.321Z" fill="white"/>
</g>
</svg>
