<svg width="101" height="69" viewBox="0 0 101 69" fill="none" xmlns="http://www.w3.org/2000/svg">
<path fill-rule="evenodd" clip-rule="evenodd" d="M24.3605 7.32959C23.5919 7.32959 22.9688 7.94096 22.9688 8.69511V9.43453C22.9688 10.1887 23.5919 10.8 24.3605 10.8H25.1515V22.7251L29.4789 18.2209V10.8H30.2694C31.0381 10.8 31.6612 10.1887 31.6612 9.43452V8.69511C31.6612 7.94095 31.0381 7.32959 30.2694 7.32959H24.3605Z" fill="#05283B"/>
<path fill-rule="evenodd" clip-rule="evenodd" d="M43.8985 28.7334C43.4238 28.7334 43.0391 29.1109 43.0391 29.5766V33.6241C43.0391 34.0898 43.4238 34.4673 43.8985 34.4673H48.0238C48.4984 34.4673 48.8832 34.0898 48.8832 33.6241V29.5766C48.8832 29.1109 48.4984 28.7334 48.0238 28.7334H43.8985ZM43.8985 37.8402C43.4238 37.8402 43.0391 38.2177 43.0391 38.6834V42.7308C43.0391 43.1965 43.4238 43.574 43.8985 43.574H48.0238C48.4984 43.574 48.8832 43.1965 48.8832 42.7308V38.6834C48.8832 38.2177 48.4984 37.8402 48.0238 37.8402H43.8985ZM52.3209 29.5766C52.3209 29.1109 52.7057 28.7334 53.1804 28.7334H57.3056C57.7803 28.7334 58.1651 29.1109 58.1651 29.5766V33.6241C58.1651 34.0898 57.7803 34.4673 57.3056 34.4673H53.1804C52.7057 34.4673 52.3209 34.0898 52.3209 33.6241V29.5766ZM53.1804 37.8402C52.7057 37.8402 52.3209 38.2177 52.3209 38.6834V42.7308C52.3209 43.1965 52.7057 43.574 53.1804 43.574H57.3056C57.7803 43.574 58.1651 43.1965 58.1651 42.7308V38.6834C58.1651 38.2177 57.7803 37.8402 57.3056 37.8402H53.1804Z" fill="#05283B"/>
<path fill-rule="evenodd" clip-rule="evenodd" d="M50.6034 6.4434C44.933 11.5664 36.7321 18.4472 28.489 24.2987C23.8864 27.5659 19.2125 30.5538 14.9205 32.7365C10.7248 34.8703 6.52633 36.43 2.98669 36.43C1.44937 36.43 0.203125 35.2073 0.203125 33.699C0.203125 32.1907 1.44937 30.9679 2.98669 30.9679C5.1158 30.9679 8.30834 29.947 12.3586 27.8872C16.3126 25.8763 20.7397 23.0578 25.2257 19.8734C34.1924 13.5083 43.1625 5.84782 48.6691 0.745501C49.2132 0.241378 49.9099 -0.00563342 50.6034 9.74533e-05C51.297 -0.00563342 51.9936 0.241378 52.5377 0.745501C58.0443 5.84782 67.0144 13.5083 75.9811 19.8734C80.4671 23.0578 84.8942 25.8763 88.8482 27.8872C92.8985 29.947 96.091 30.9679 98.2201 30.9679C99.7575 30.9679 101.004 32.1907 101.004 33.699C101.004 35.2073 99.7575 36.43 98.2201 36.43C94.6805 36.43 90.482 34.8703 86.2863 32.7365C81.9943 30.5538 77.3204 27.5659 72.7178 24.2987C64.4747 18.4472 56.2739 11.5664 50.6034 6.4434Z" fill="#05283B"/>
<path fill-rule="evenodd" clip-rule="evenodd" d="M52.5852 6.12934C53.6408 7.22592 53.5904 8.95442 52.4727 9.99004C47.1043 14.9643 38.3784 22.4187 29.6011 28.6494C25.2151 31.7629 20.7581 34.6124 16.6627 36.6952C12.6635 38.729 8.64122 40.2272 5.23669 40.2272C3.69937 40.2272 2.45312 39.0045 2.45312 37.4961C2.45312 35.9878 3.69937 34.7651 5.23669 34.7651C7.23069 34.7651 10.247 33.8057 14.1008 31.8458C17.8582 29.9349 22.0684 27.2548 26.3378 24.2241C34.8712 18.1666 43.4092 10.8752 48.6503 6.01894C49.768 4.98332 51.5297 5.03275 52.5852 6.12934Z" fill="url(#paint0_linear_1146_1346)"/>
<path fill-rule="evenodd" clip-rule="evenodd" d="M48.571 6.12934C47.5155 7.22592 47.5659 8.95442 48.6835 9.99004C54.052 14.9643 62.7778 22.4187 71.5552 28.6494C75.9412 31.7629 80.3981 34.6124 84.4935 36.6952C88.4927 38.729 92.515 40.2272 95.9196 40.2272C97.4569 40.2272 98.7031 39.0045 98.7031 37.4961C98.7031 35.9878 97.4569 34.7651 95.9196 34.7651C93.9256 34.7651 90.9092 33.8057 87.0555 31.8458C83.298 29.9349 79.0878 27.2548 74.8185 24.2241C66.2851 18.1666 57.747 10.8752 52.506 6.01894C51.3883 4.98332 49.6266 5.03275 48.571 6.12934Z" fill="url(#paint1_linear_1146_1346)"/>
<path fill-rule="evenodd" clip-rule="evenodd" d="M52.5607 11.4643C53.6162 12.5609 53.5659 14.2894 52.4482 15.325C47.6102 19.8078 39.7475 26.5249 31.8357 32.1412C27.8824 34.9475 23.8588 37.5205 20.156 39.4036C16.5495 41.2378 12.8791 42.6131 9.7445 42.6131C8.20718 42.6131 6.96094 41.3904 6.96094 39.882C6.96094 38.3737 8.20718 37.151 9.7445 37.151C11.4686 37.151 14.133 36.3144 17.5941 34.5543C20.9589 32.8431 24.7358 30.4394 28.5724 27.7159C36.2403 22.2728 43.9152 15.7187 48.6258 11.3539C49.7434 10.3183 51.5052 10.3677 52.5607 11.4643Z" fill="url(#paint2_linear_1146_1346)"/>
<path fill-rule="evenodd" clip-rule="evenodd" d="M48.5487 11.4643C47.4931 12.5609 47.5435 14.2894 48.6612 15.325C53.4992 19.8078 61.3618 26.5249 69.2737 32.1412C73.2269 34.9475 77.2505 37.5205 80.9533 39.4036C84.5599 41.2378 88.2303 42.6131 91.3649 42.6131C92.9022 42.6131 94.1484 41.3904 94.1484 39.882C94.1484 38.3737 92.9022 37.151 91.3649 37.151C89.6408 37.151 86.9764 36.3144 83.5153 34.5543C80.1504 32.8431 76.3736 30.4394 72.537 27.7159C64.8691 22.2728 57.1942 15.7187 52.4836 11.3539C51.3659 10.3183 49.6042 10.3677 48.5487 11.4643Z" fill="url(#paint3_linear_1146_1346)"/>
<path d="M81.1782 51.9287H87.0047L89.3914 55.7627L91.8016 51.9287H97.5578L92.2462 59.3671L98.447 67.9993H92.5972L89.2978 63.1322L86.0687 67.9993H80.2891L86.4899 59.39L81.1782 51.9287Z" fill="#05283B"/>
<path d="M77.0863 67.9993H72.0547V51.9287H77.0863V67.9993Z" fill="#05283B"/>
<path d="M59.8903 67.9993H54.8594V51.9287H67.7291V56.1759H59.8903V57.76H65.5295V61.6629H59.8903V67.9993Z" fill="#05283B"/>
<path d="M40.365 62.742C41.0513 63.4614 41.9171 63.8211 42.9623 63.8211C44.0075 63.8211 44.8732 63.4614 45.5596 62.742C46.246 61.9921 46.5892 61.0661 46.5892 59.9641C46.5892 58.8468 46.246 57.9285 45.5596 57.2092C44.8888 56.4745 44.0231 56.1072 42.9623 56.1072C41.9015 56.1072 41.0357 56.4745 40.365 57.2092C39.6786 57.9285 39.3354 58.8468 39.3354 59.9641C39.3354 61.0661 39.6786 61.9921 40.365 62.742ZM36.6678 65.8643C35.0143 64.242 34.1875 62.2752 34.1875 59.9641C34.1875 57.653 35.0143 55.6863 36.6678 54.0639C38.337 52.4263 40.4351 51.6074 42.9623 51.6074C45.4738 51.6074 47.5642 52.4263 49.2333 54.0639C50.8869 55.6863 51.7137 57.653 51.7137 59.9641C51.7137 62.2905 50.8869 64.2649 49.2333 65.8873C47.5798 67.5096 45.4894 68.3208 42.9623 68.3208C40.4351 68.3208 38.337 67.502 36.6678 65.8643Z" fill="#05283B"/>
<path d="M26.1071 62.742C26.7935 63.4614 27.6593 63.8211 28.7045 63.8211C29.7497 63.8211 30.6154 63.4614 31.3018 62.742C31.9882 61.9921 32.3314 61.0661 32.3314 59.9641C32.3314 58.8468 31.9882 57.9285 31.3018 57.2092C30.631 56.4745 29.7652 56.1072 28.7045 56.1072C27.6437 56.1072 26.7779 56.4745 26.1071 57.2092C25.4208 57.9285 25.0776 58.8468 25.0776 59.9641C25.0776 61.0661 25.4208 61.9921 26.1071 62.742ZM22.41 65.8643C20.7565 64.242 19.9297 62.2752 19.9297 59.9641C19.9297 57.653 20.7565 55.6863 22.41 54.0639C24.0792 52.4263 26.1773 51.6074 28.7045 51.6074C31.216 51.6074 33.3064 52.4263 34.9755 54.0639C36.6291 55.6863 37.4559 57.653 37.4559 59.9641C37.4559 62.2905 36.6291 64.2649 34.9755 65.8873C33.322 67.5096 31.2316 68.3208 28.7045 68.3208C26.1773 68.3208 24.0792 67.502 22.41 65.8643Z" fill="#05283B"/>
<path d="M13.8804 61.7088L18.7709 67.9993H12.8977L8.54536 62.2598H7.84338V67.9993H2.8125V51.9287H10.7215C12.5935 51.9287 14.0832 52.4185 15.1908 53.398C16.314 54.3623 16.8756 55.5943 16.8756 57.0943C16.8756 58.1044 16.6104 59.0151 16.08 59.8263C15.5496 60.6221 14.8164 61.2496 13.8804 61.7088ZM7.84338 58.6554H10.1365C10.6045 58.6554 10.9789 58.5406 11.2597 58.311C11.5561 58.0661 11.7043 57.7447 11.7043 57.3468C11.7043 56.9489 11.5561 56.6351 11.2597 56.4055C10.9789 56.1759 10.6045 56.0611 10.1365 56.0611H7.84338V58.6554Z" fill="#05283B"/>
<defs>
<linearGradient id="paint0_linear_1146_1346" x1="27.8991" y1="5.27344" x2="27.8991" y2="40.2272" gradientUnits="userSpaceOnUse">
<stop stop-color="#FDAE28"/>
<stop offset="1" stop-color="#FF3F36"/>
</linearGradient>
<linearGradient id="paint1_linear_1146_1346" x1="73.2572" y1="5.27344" x2="73.2572" y2="40.2272" gradientUnits="userSpaceOnUse">
<stop stop-color="#FDAE28"/>
<stop offset="1" stop-color="#FF3F36"/>
</linearGradient>
<linearGradient id="paint2_linear_1146_1346" x1="30.1407" y1="10.6084" x2="30.1407" y2="42.6131" gradientUnits="userSpaceOnUse">
<stop stop-color="#FDAE28"/>
<stop offset="1" stop-color="#FF3F36"/>
</linearGradient>
<linearGradient id="paint3_linear_1146_1346" x1="70.9686" y1="10.6084" x2="70.9686" y2="42.6131" gradientUnits="userSpaceOnUse">
<stop stop-color="#FDAE28"/>
<stop offset="1" stop-color="#FF3F36"/>
</linearGradient>
</defs>
</svg>
