<svg width="850" height="581" viewBox="0 0 850 581" fill="none" xmlns="http://www.w3.org/2000/svg">
<g opacity="0.2" clip-path="url(#clip0_1514_215)">
<path fill-rule="evenodd" clip-rule="evenodd" d="M205.014 61.7173C198.546 61.7173 193.302 66.8652 193.302 73.2154V79.4415C193.302 85.7918 198.546 90.9391 205.014 90.9391H211.671V191.352L248.09 153.425V90.9391H254.742C261.212 90.9391 266.456 85.7918 266.456 79.4414V73.2154C266.456 66.8651 261.212 61.7173 254.742 61.7173H205.014Z" fill="#05283B"/>
<path fill-rule="evenodd" clip-rule="evenodd" d="M369.443 241.944C365.448 241.944 362.21 245.122 362.21 249.044V283.125C362.21 287.046 365.448 290.225 369.443 290.225H404.161C408.155 290.225 411.393 287.046 411.393 283.125V249.044C411.393 245.122 408.155 241.944 404.161 241.944H369.443ZM369.443 318.625C365.448 318.625 362.21 321.804 362.21 325.725V359.806C362.21 363.727 365.448 366.906 369.443 366.906H404.161C408.155 366.906 411.393 363.727 411.393 359.806V325.725C411.393 321.804 408.155 318.625 404.161 318.625H369.443ZM440.324 249.044C440.324 245.122 443.563 241.944 447.558 241.944H482.275C486.27 241.944 489.508 245.122 489.508 249.044V283.125C489.508 287.046 486.27 290.225 482.275 290.225H447.558C443.563 290.225 440.324 287.046 440.324 283.125V249.044ZM447.558 318.625C443.563 318.625 440.324 321.804 440.324 325.725V359.806C440.324 363.727 443.563 366.906 447.558 366.906H482.275C486.27 366.906 489.508 363.727 489.508 359.806V325.725C489.508 321.804 486.27 318.625 482.275 318.625H447.558Z" fill="#05283B"/>
<path fill-rule="evenodd" clip-rule="evenodd" d="M425.87 54.2553C378.149 97.3924 309.132 155.331 239.759 204.602C201.024 232.113 161.689 257.272 125.569 275.651C90.2582 293.618 54.9246 306.751 25.1355 306.751C12.1977 306.751 1.70947 296.456 1.70947 283.755C1.70947 271.055 12.1977 260.759 25.1355 260.759C43.0538 260.759 69.9217 252.162 104.008 234.818C137.284 217.886 174.542 194.153 212.295 167.34C287.758 113.744 363.249 49.2403 409.591 6.27733C414.17 2.03247 420.034 -0.047435 425.87 0.000820585C431.707 -0.047435 437.57 2.03247 442.149 6.27733C488.492 49.2403 563.983 113.744 639.445 167.34C677.198 194.153 714.456 217.886 747.732 234.818C781.819 252.162 808.687 260.759 826.605 260.759C839.543 260.759 850.034 271.055 850.034 283.755C850.034 296.456 839.543 306.751 826.605 306.751C796.816 306.751 761.482 293.618 726.172 275.651C690.051 257.272 650.716 232.113 611.981 204.602C542.609 155.331 473.592 97.3924 425.87 54.2553Z" fill="#05283B"/>
<path fill-rule="evenodd" clip-rule="evenodd" d="M442.549 51.6108C451.432 60.8443 451.008 75.3987 441.602 84.119C396.422 126.004 322.987 188.772 249.118 241.236C212.206 267.453 174.697 291.446 140.231 308.984C106.574 326.109 72.7231 338.725 44.0711 338.725C31.1333 338.725 20.645 328.429 20.645 315.728C20.645 303.028 31.1333 292.732 44.0711 292.732C60.8523 292.732 86.2371 284.654 118.67 268.151C150.292 252.06 185.724 229.493 221.655 203.974C293.47 152.968 365.325 91.5723 409.433 50.6811C418.84 41.9609 433.666 42.3771 442.549 51.6108Z" fill="url(#paint0_linear_1514_215)"/>
<path fill-rule="evenodd" clip-rule="evenodd" d="M408.766 51.6108C399.883 60.8443 400.307 75.3987 409.713 84.119C454.893 126.004 528.328 188.772 602.197 241.236C639.109 267.453 676.618 291.446 711.084 308.984C744.74 326.109 778.591 338.725 807.244 338.725C820.182 338.725 830.67 328.429 830.67 315.728C830.67 303.028 820.182 292.732 807.244 292.732C790.463 292.732 765.077 284.654 732.645 268.151C701.023 252.06 665.59 229.493 629.661 203.974C557.845 152.968 485.99 91.5723 441.882 50.6811C432.476 41.9609 417.65 42.3771 408.766 51.6108Z" fill="url(#paint1_linear_1514_215)"/>
<path fill-rule="evenodd" clip-rule="evenodd" d="M442.343 96.5328C451.225 105.767 450.802 120.321 441.396 129.041C400.68 166.788 334.509 223.347 267.924 270.638C234.654 294.268 200.792 315.934 169.63 331.79C139.278 347.234 108.388 358.815 82.0082 358.815C69.0703 358.815 58.5822 348.519 58.5822 335.818C58.5822 323.118 69.0703 312.822 82.0082 312.822C96.5179 312.822 118.941 305.778 148.069 290.957C176.387 276.549 208.173 256.309 240.461 233.376C304.993 187.544 369.583 132.356 409.227 95.6032C418.633 86.8832 433.46 87.2991 442.343 96.5328Z" fill="url(#paint2_linear_1514_215)"/>
<path fill-rule="evenodd" clip-rule="evenodd" d="M408.578 96.5328C399.694 105.767 400.119 120.321 409.525 129.041C450.241 166.788 516.411 223.347 582.996 270.638C616.266 294.268 650.128 315.934 681.29 331.79C711.643 347.234 742.532 358.815 768.912 358.815C781.85 358.815 792.338 348.519 792.338 335.818C792.338 323.118 781.85 312.822 768.912 312.822C754.403 312.822 731.98 305.778 702.851 290.957C674.533 276.549 642.748 256.309 610.46 233.376C545.928 187.544 481.337 132.356 441.694 95.6032C432.287 86.8832 417.461 87.2991 408.578 96.5328Z" fill="url(#paint3_linear_1514_215)"/>
<path d="M683.183 437.255H732.218L752.304 469.538L772.588 437.255H821.031L776.33 499.888L828.514 572.574H779.283L751.516 531.591L724.341 572.574H675.7L727.885 500.081L683.183 437.255Z" fill="#05283B"/>
<path d="M648.746 572.574H606.401V437.255H648.746V572.574Z" fill="#05283B"/>
<path d="M504.027 572.574H461.688V437.255H569.997V473.017H504.027V486.356H551.486V519.219H504.027V572.574Z" fill="#05283B"/>
<path d="M339.705 528.306C345.481 534.363 352.768 537.392 361.564 537.392C370.36 537.392 377.646 534.363 383.422 528.306C389.199 521.992 392.087 514.194 392.087 504.915C392.087 495.507 389.199 487.775 383.422 481.718C377.777 475.532 370.491 472.439 361.564 472.439C352.636 472.439 345.35 475.532 339.705 481.718C333.929 487.775 331.04 495.507 331.04 504.915C331.04 514.194 333.929 521.992 339.705 528.306ZM308.59 554.597C294.675 540.936 287.717 524.375 287.717 504.915C287.717 485.455 294.675 468.895 308.59 455.234C322.638 441.445 340.295 434.549 361.564 434.549C382.7 434.549 400.293 441.445 414.34 455.234C428.256 468.895 435.214 485.455 435.214 504.915C435.214 524.504 428.256 541.129 414.34 554.79C400.424 568.45 382.832 575.281 361.564 575.281C340.295 575.281 322.638 568.386 308.59 554.597Z" fill="#05283B"/>
<path d="M219.713 528.306C225.49 534.363 232.776 537.392 241.573 537.392C250.369 537.392 257.654 534.363 263.431 528.306C269.208 521.992 272.096 514.194 272.096 504.915C272.096 495.507 269.208 487.775 263.431 481.718C257.786 475.532 250.499 472.439 241.573 472.439C232.645 472.439 225.359 475.532 219.713 481.718C213.937 487.775 211.049 495.507 211.049 504.915C211.049 514.194 213.937 521.992 219.713 528.306ZM188.599 554.597C174.683 540.936 167.725 524.375 167.725 504.915C167.725 485.455 174.683 468.895 188.599 455.234C202.647 441.445 220.304 434.549 241.573 434.549C262.709 434.549 280.301 441.445 294.348 455.234C308.265 468.895 315.223 485.455 315.223 504.915C315.223 524.504 308.265 541.129 294.348 554.79C280.433 568.45 262.84 575.281 241.573 575.281C220.304 575.281 202.647 568.386 188.599 554.597Z" fill="#05283B"/>
<path d="M116.815 519.606L157.973 572.574H108.545L71.9164 524.245H66.0086V572.574H23.6696V437.255H90.2305C105.985 437.255 118.522 441.379 127.843 449.627C137.296 457.746 142.022 468.12 142.022 480.75C142.022 489.256 139.791 496.924 135.327 503.755C130.863 510.456 124.692 515.739 116.815 519.606ZM66.0086 493.895H85.3072C89.2458 493.895 92.3967 492.929 94.7599 490.995C97.2543 488.933 98.5015 486.227 98.5015 482.877C98.5015 479.526 97.2543 476.884 94.7599 474.951C92.3967 473.017 89.2458 472.051 85.3072 472.051H66.0086V493.895Z" fill="#05283B"/>
</g>
<defs>
<linearGradient id="paint0_linear_1514_215" x1="234.794" y1="44.4038" x2="234.794" y2="338.725" gradientUnits="userSpaceOnUse">
<stop stop-color="#FDAE28"/>
<stop offset="1" stop-color="#FF3F36"/>
</linearGradient>
<linearGradient id="paint1_linear_1514_215" x1="616.521" y1="44.4038" x2="616.521" y2="338.725" gradientUnits="userSpaceOnUse">
<stop stop-color="#FDAE28"/>
<stop offset="1" stop-color="#FF3F36"/>
</linearGradient>
<linearGradient id="paint2_linear_1514_215" x1="253.659" y1="89.3259" x2="253.659" y2="358.815" gradientUnits="userSpaceOnUse">
<stop stop-color="#FDAE28"/>
<stop offset="1" stop-color="#FF3F36"/>
</linearGradient>
<linearGradient id="paint3_linear_1514_215" x1="597.26" y1="89.3259" x2="597.26" y2="358.815" gradientUnits="userSpaceOnUse">
<stop stop-color="#FDAE28"/>
<stop offset="1" stop-color="#FF3F36"/>
</linearGradient>
<clipPath id="clip0_1514_215">
<rect width="850" height="581" fill="white"/>
</clipPath>
</defs>
</svg>
